inDegrees=no
nColumns=24
nRows=21
DataType=double
version=3
OpenSimVersion=4.5
endheader
time	pelvis_tilt	pelvis_list	pelvis_rotation	pelvis_tz	pelvis_ty	pelvis_tx	hip_flexion_r	hip_adduction_r	hip_rotation_r	knee_angle_r	ankle_angle_r	subtalar_angle_r	mtp_angle_r	hip_flexion_l	hip_adduction_l	hip_rotation_l	knee_angle_l	ankle_angle_l	subtalar_angle_l	mtp_angle_l	lumbar_extension	lumbar_bending	lumbar_rotation
0.35	-0.03650547322062757	0.02463487293931509	-0.01481599095903366	0.01123584	0.85915414	0.44551401	-0.009018267390567925	0.06314293985953963	-0.06980471395954727	-0.2187461583821945	0.2448522730508757	-0.1136246806540702	0	0.5383362715740225	0.009815408652771565	-0.1283251358561447	-0.8195087589179046	0.1064547452156982	-0.1969988005385771	0	-0.0556135784708618	0.01492681306141795	0.08484047570886245
0.36	-0.03825280929774195	0.01760300874339585	-0.01851059088528419	0.01152559999999997	0.85770082	0.457688	-0.03040907802994771	0.07099754352885954	-0.06863920385448355	-0.205474949290321	0.253230694360082	-0.1097808851446695	0	0.545275581473964	0.005299998928030357	-0.1267009633465665	-0.7496490728465061	0.107241967248164	-0.1960932231916776	0	-0.05340749364098111	0.02247393963295305	0.09430289291668158
0.37	-0.03839746418457035	0.01324279024386424	-0.02545921644274434	0.01173499	0.8562953400000001	0.46998468	-0.05213832825710853	0.07480281351301635	-0.0662159101811983	-0.1946836472912125	0.2569076262700824	-0.1064040154756597	0	0.5458593715940088	0.00338329195705835	-0.1281467687916445	-0.6728411359024739	0.116235886423002	-0.1952471792000965	0	-0.05295755735912786	0.02781182389945767	0.1020530861032252
0.38	-0.03802716193832904	0.006702700676052647	-0.0304780485486104	0.01183033999999999	0.8547332	0.48231291	-0.07488073618093259	0.08107089508991504	-0.06308719439229678	-0.1840959707615392	0.2596463498084221	-0.102360600725589	0	0.5444955884207272	-0.001017582106317057	-0.1302682894522063	-0.5947323204184615	0.1185500268558017	-0.1874512388394629	0	-0.05311368194764066	0.03562052506038426	0.10818716095109
0.39	-0.03002691860506557	0.004822071997081325	-0.03756893680379707	0.01224987999999999	0.85375139	0.4949759500000001	-0.1070289292180729	0.08141736284318937	-0.06469055332694613	-0.1702910925188163	0.2557120575810421	-0.09792088819943479	0	0.5302636858804394	-0.003479997160252851	-0.1462436635160325	-0.5107536919594253	0.1175487798095528	-0.1668433591660499	0	-0.06155805366422631	0.0373751872860207	0.1141099474614387
0.4	-0.03199894871124954	-0.008384783233772107	-0.03922452750680834	0.01191794999999995	0.8512926000000001	0.50711739	-0.125360015886685	0.09436018736363556	-0.06355671780621346	-0.1644186372898378	0.2609294553115633	-0.09545113316332973	0	0.5296544394351227	-0.01123938875555332	-0.1396837204766996	-0.434556835278155	0.1213966689887141	-0.1501572952338592	0	-0.06037170572415718	0.05314314729420452	0.1177913489851206
0.41	-0.01966726325446027	-0.01216058923575468	-0.04354376612999637	0.01204902999999996	0.85019522	0.51977366	-0.1620425376685923	0.09592714291887852	-0.06746650857795522	-0.1522312916260867	0.2618482509095529	-0.08665065162201709	0	0.5072769545506165	-0.01298207453186258	-0.1570001638243891	-0.3488580691259489	0.1199954931834059	-0.09529887413004426	0	-0.07444623052952913	0.0564468866203582	0.1211248952187727
0.42	-0.02489927070841095	-0.02078937615229115	-0.04697904119464331	0.01154298999999998	0.84729573	0.53242186	-0.1788205333284734	0.1023911192038235	-0.06904379037371762	-0.1428432753608192	0.2612677205409521	-0.07780183999385454	0	0.5050695830640112	-0.01646900832869456	-0.1627732808464635	-0.2704652534915191	0.1138029728439456	-0.05821234754714258	0	-0.06813104077078989	0.06790436142179815	0.1254356328001264
0.43	-0.02638081168803395	-0.02882077412859917	-0.04895703918300971	0.01090611999999996	0.84459704	0.5452222800000001	-0.1982461393584231	0.1076060054055511	-0.07707283516391829	-0.1362194368647683	0.2650118685711053	-0.06480284205143291	0	0.4965151459978728	-0.01828067108783896	-0.1727760717129206	-0.1922234268142782	0.1068843981536494	-0.01157991313912586	0	-0.06594423065903653	0.07793236287116861	0.1284467982204451
0.4400000000000001	-0.02760623620236636	-0.03622439999960905	-0.05306425710729583	0.01018112999999998	0.84168686	0.55783056	-0.2141887560356503	0.1102360225076937	-0.08814141011637525	-0.1366827291041895	0.270216338647857	-0.04277347652527223	0	0.4872774210816921	-0.01993354326803815	-0.1862158735018845	-0.1188861177540083	0.09814482842869844	0.04098486048983455	0	-0.06486496564989426	0.08786138303346705	0.1329521047577454
0.4500000000000001	-0.03014208810799522	-0.04374551562665202	-0.05968453557045835	0.009460899999999994	0.8385966500000001	0.5703529000000001	-0.2257999562960132	0.1116435061074515	-0.0970125645769572	-0.1426322249116803	0.2780939239401025	-0.0176514299760784	0	0.4765689253562799	-0.02186981817245181	-0.1903098921537546	-0.04753484712391658	0.08611840055118494	0.08374843680945777	0	-0.06340642157020478	0.09837852382675027	0.1400440147283082
0.4599999999999999	-0.03280369913478044	-0.04884229796717791	-0.06557160469351295	0.009057839999999984	0.83544814	0.5831320800000001	-0.2364462395857052	0.1105649493529197	-0.1074652646726642	-0.1508084004342253	0.2883483658028901	0.01047201530547292	0	0.4682034702726195	-0.02224716830510972	-0.1909354846547139	0.01042974028939696	0.07436267446238626	0.1156756575497274	0	-0.06084014528860839	0.1048975120170535	0.1447352285015431
0.4699999999999999	-0.03714007845480422	-0.05501457777464247	-0.06841185674015131	0.008909609999999957	0.8322432200000001	0.59545835	-0.2445176272852897	0.1126029610702284	-0.1106820860784697	-0.159106387197656	0.2905489060708031	0.02467596517605945	0	0.4725249756627933	-0.0253207926016391	-0.1809757868401531	0.03880864155958107	0.07095210946683746	0.1311468358377827	0	-0.0577906042668285	0.1113859576435785	0.1447534432812157
0.4799999999999999	-0.0389200053242945	-0.05682879467490722	-0.07183483106098369	0.009265649999999959	0.82955117	0.60821649	-0.256409337386632	0.1105914933673816	-0.1113390349902374	-0.1653239496957569	0.2905690330332042	0.02535453452846913	0	0.4809273208981885	-0.02638066578106123	-0.1795135674461248	0.04219984055628265	0.07065862676806101	0.1318226100453953	0	-0.05629309640971994	0.1112988311563848	0.1445519101124879
0.4899999999999999	-0.04502171714598073	-0.05765384513602458	-0.07695170437653581	0.009003869999999969	0.82655573	0.62107556	-0.2561174185028653	0.1033282552451918	-0.1330153764337886	-0.1858801002536017	0.3020354430477497	0.08385991221051313	0	0.4922680363142627	-0.02629990293885322	-0.1749169829814721	0.03887818437815971	0.06156294844011353	0.1318784661665127	0	-0.05038830965447994	0.1124218051441164	0.1464223995431366
0.4999999999999999	-0.0454931500472223	-0.05380522049058113	-0.07985083171445864	0.009171869999999971	0.8240242	0.63470611	-0.2674634648526067	0.09538089465651124	-0.1311055848063789	-0.1966894096872676	0.3004441146676343	0.08575712018854892	0	0.4989300903650824	-0.02214035450395352	-0.1741727768573498	0.02175606354592628	0.06057950829009106	0.1229769190659353	0	-0.04820777644484845	0.1060933664164924	0.1458721604109017
0.5099999999999999	-0.04428281874454722	-0.05038238134175268	-0.08413880321799597	0.009478399999999998	0.82163135	0.6487831900000001	-0.2803143993587318	0.08758332572915264	-0.127162894578237	-0.2085571092940901	0.2938363342478993	0.08860200774196431	0	0.5036522830344085	-0.01958358887051709	-0.1713396847626181	-0.006380434005903158	0.06314920943127865	0.1109506039366915	0	-0.0472308809304551	0.09966239134064291	0.1458699715934868
0.5199999999999999	-0.0419835682775021	-0.04421459301524719	-0.08838349192496137	0.009403399999999951	0.81937634	0.6633453	-0.2940343324267601	0.07656146765571797	-0.1221340297569772	-0.2206323828287146	0.2855597188666264	0.08942204650222363	0	0.5064062860576847	-0.01402167867908253	-0.166604775624362	-0.04349255741308165	0.06853012374329363	0.09369478355337245	0	-0.04642756713681886	0.09105641993768095	0.146349914448505
0.5299999999999999	-0.0379418705049624	-0.03805660431372325	-0.09042068119615866	0.009025659999999991	0.81722577	0.67845078	-0.3102808521165299	0.06577263145777677	-0.1176178435352517	-0.2327420557556983	0.2764612590074501	0.08935187588871306	0	0.5063217018170795	-0.006506684666274196	-0.1517362211297769	-0.08641490842915388	0.07776547378996121	0.05853928681141637	0	-0.04608954381006444	0.08267384038153165	0.1448813373436104
0.5399999999999999	-0.03573293261221389	-0.02974482791858784	-0.09228325562765803	0.008800149999999951	0.81510877	0.69395995	-0.3249705752890338	0.05341088376852018	-0.1152304685634396	-0.2444118873852223	0.2657039642252179	0.0877184730308528	0	0.5088766601620754	0.003103390886922141	-0.1529534624448038	-0.1316307955680743	0.07340310326068114	0.03861178604778155	0	-0.04266341100118663	0.07112774194946564	0.1444552295184358
0.5499999999999999	-0.03708521017930412	-0.01703993615708534	-0.09049653035274112	0.008409829999999952	0.8135457700000001	0.70870829	-0.3315632392375844	0.03859992095046064	-0.1121865495962462	-0.2606518299762388	0.2525366882685702	0.08513571612872858	0	0.5204429560678443	0.01660048502844485	-0.1467722211211016	-0.1642972634284627	0.01184823185527998	0.004535211183236784	0	-0.03623618210004362	0.05476607538402601	0.1377750175856772
